<svg xmlns="http://www.w3.org/2000/svg" xmlns:xlink="http://www.w3.org/1999/xlink" width="500" zoomAndPan="magnify" viewBox="0 0 375 374.999991" height="500" preserveAspectRatio="xMidYMid meet" version="1.2"><defs><clipPath id="caf3b531ab"><path d="M 29.296875 0 L 345.796875 0 L 345.796875 375 L 29.296875 375 Z M 29.296875 0 "/></clipPath></defs><g id="2a5efb7b54"><path style="fill:none;stroke-width:4;stroke-linecap:butt;stroke-linejoin:miter;stroke:#000000;stroke-opacity:1;stroke-miterlimit:4;" d="M 0.00000516333 2.000988 L 160.000016 2.000988 " transform="matrix(0.75,0,0,0.75,127.499996,254.796134)"/><g clip-rule="nonzero" clip-path="url(#caf3b531ab)"><path style=" stroke:none;fill-rule:nonzero;fill:#000000;fill-opacity:1;" d="M 221.683594 295.8125 L 196.5 274.839844 L 224.0625 247.289062 L 249.3125 254.371094 Z M 153.996094 295.8125 L 126.367188 254.371094 L 151.617188 247.289062 L 179.179688 274.839844 Z M 187.976562 228.441406 C 194.878906 228.441406 205.847656 224.257812 217.089844 217.199219 L 217.089844 237.714844 L 187.839844 266.957031 L 158.589844 237.714844 L 158.589844 217.109375 C 169.921875 224.234375 181.03125 228.441406 187.976562 228.441406 Z M 211.242188 175.804688 C 211.242188 179.023438 208.613281 181.652344 205.390625 181.652344 C 202.167969 181.652344 199.539062 179.023438 199.539062 175.804688 C 199.539062 172.582031 202.167969 169.953125 205.390625 169.953125 C 208.613281 169.953125 211.242188 172.582031 211.242188 175.804688 Z M 129.335938 158.007812 L 129.335938 111.492188 C 129.335938 110.507812 129.65625 87.640625 147.160156 87.640625 C 154.40625 87.640625 159.980469 90.015625 165.902344 92.507812 C 172.34375 95.25 178.996094 98.058594 187.839844 98.058594 C 196.683594 98.058594 203.332031 95.25 209.777344 92.507812 C 215.695312 90.015625 221.273438 87.640625 228.515625 87.640625 C 246.023438 87.640625 246.34375 110.507812 246.34375 111.46875 L 246.34375 154.191406 L 218.734375 164.5625 C 215.515625 160.726562 210.761719 158.257812 205.390625 158.257812 C 195.699219 158.257812 187.839844 166.117188 187.839844 175.804688 C 187.839844 185.488281 195.699219 193.347656 205.390625 193.347656 C 215.078125 193.347656 222.941406 185.488281 222.941406 175.804688 C 222.941406 175.6875 222.917969 175.597656 222.917969 175.484375 L 244.949219 167.210938 C 237.519531 194.261719 200.089844 216.742188 187.976562 216.742188 C 174.449219 216.742188 129.335938 188.984375 129.335938 158.007812 Z M 88.382812 145.394531 L 88.382812 124.332031 C 88.382812 120.449219 91.539062 117.316406 95.402344 117.316406 L 117.636719 117.316406 L 117.636719 152.410156 L 95.402344 152.410156 C 91.539062 152.410156 88.382812 149.277344 88.382812 145.394531 Z M 187.839844 12.042969 C 261.8125 12.042969 277.332031 58.148438 277.332031 96.824219 C 277.332031 99.773438 277.125 102.695312 276.804688 105.621094 L 267.871094 105.621094 C 266.222656 46.65625 239.488281 17.890625 186.148438 17.890625 C 132.789062 17.890625 106.050781 46.65625 104.382812 105.621094 L 98.875 105.621094 C 98.554688 102.695312 98.347656 99.773438 98.347656 96.824219 C 98.347656 58.148438 113.867188 12.042969 187.839844 12.042969 Z M 287.292969 145.394531 C 287.292969 149.277344 284.140625 152.410156 280.277344 152.410156 L 258.042969 152.410156 L 258.042969 117.316406 L 280.277344 117.316406 C 284.140625 117.316406 287.292969 120.449219 287.292969 124.332031 Z M 118.070312 105.621094 L 116.082031 105.621094 C 117.636719 53.851562 139.964844 29.589844 186.148438 29.589844 C 229.773438 29.589844 252.101562 51.269531 255.734375 97.351562 C 252.285156 86.636719 244.355469 75.945312 228.515625 75.945312 C 218.894531 75.945312 211.628906 79.027344 205.207031 81.746094 C 199.355469 84.238281 194.308594 86.359375 187.839844 86.359375 C 181.371094 86.359375 176.320312 84.238281 170.472656 81.746094 C 164.050781 79.027344 156.78125 75.945312 147.160156 75.945312 C 127.144531 75.945312 119.761719 93.007812 118.070312 105.621094 Z M 337.617188 298.941406 C 335.191406 278.425781 320.085938 261.382812 300.230469 256.539062 L 228.792969 236.457031 L 228.792969 208.769531 C 242.890625 197.210938 255.140625 181.515625 257.539062 164.105469 L 280.277344 164.105469 C 290.609375 164.105469 298.996094 155.722656 298.996094 145.394531 L 298.996094 124.332031 C 298.996094 116.90625 294.628906 110.554688 288.34375 107.515625 C 288.757812 103.976562 289.03125 100.410156 289.03125 96.824219 C 289.03125 60.796875 275.890625 0.347656 187.839844 0.347656 C 99.789062 0.347656 86.648438 60.796875 86.648438 96.824219 C 86.648438 100.386719 86.921875 103.976562 87.332031 107.515625 C 81.050781 110.554688 76.683594 116.90625 76.683594 124.332031 L 76.683594 145.394531 C 76.683594 155.722656 85.070312 164.105469 95.402344 164.105469 L 118.140625 164.105469 C 120.539062 181.46875 132.789062 197.140625 146.886719 208.679688 L 146.886719 236.457031 L 75.65625 256.496094 C 55.589844 261.382812 40.484375 278.425781 38.0625 298.941406 L 29.925781 368.121094 C 29.539062 371.339844 31.847656 374.242188 35.046875 374.609375 C 35.273438 374.628906 35.503906 374.652344 35.730469 374.652344 C 38.65625 374.652344 41.195312 372.460938 41.535156 369.492188 L 49.695312 300.3125 C 51.523438 284.640625 63.0625 271.59375 78.625 267.804688 L 114.527344 257.707031 L 147.871094 307.714844 C 148.785156 309.085938 150.246094 310.023438 151.890625 310.25 C 152.1875 310.296875 152.464844 310.320312 152.738281 310.320312 C 154.085938 310.320312 155.433594 309.839844 156.484375 308.972656 L 181.988281 287.726562 L 181.988281 327.726562 C 181.988281 330.972656 184.617188 333.578125 187.839844 333.578125 C 191.0625 333.578125 193.691406 330.972656 193.691406 327.726562 L 193.691406 287.726562 L 219.191406 308.972656 C 220.246094 309.839844 221.59375 310.320312 222.941406 310.320312 C 223.214844 310.320312 223.488281 310.296875 223.785156 310.25 C 225.433594 310.023438 226.894531 309.085938 227.808594 307.714844 L 261.152344 257.707031 L 297.257812 267.847656 C 312.613281 271.59375 324.15625 284.640625 325.984375 300.3125 L 334.140625 369.492188 C 334.484375 372.460938 337.019531 374.652344 339.945312 374.652344 C 340.175781 374.652344 340.402344 374.628906 340.632812 374.609375 C 343.832031 374.242188 346.140625 371.339844 345.75 368.121094 L 337.617188 298.941406 "/></g><path style=" stroke:none;fill-rule:nonzero;fill:#000000;fill-opacity:1;" d="M 187.839844 345.410156 C 184.617188 345.410156 181.988281 348.039062 181.988281 351.257812 L 181.988281 368.804688 C 181.988281 372.027344 184.617188 374.652344 187.839844 374.652344 C 191.0625 374.652344 193.691406 372.027344 193.691406 368.804688 L 193.691406 351.257812 C 193.691406 348.039062 191.0625 345.410156 187.839844 345.410156 "/></g></svg>