<svg xmlns="http://www.w3.org/2000/svg" xmlns:xlink="http://www.w3.org/1999/xlink" width="500" zoomAndPan="magnify" viewBox="0 0 375 374.999991" height="500" preserveAspectRatio="xMidYMid meet" version="1.2"><defs><clipPath id="bcae184571"><path d="M 348 88 L 365.902344 88 L 365.902344 101 L 348 101 Z M 348 88 "/></clipPath><clipPath id="e72f2fbb24"><path d="M 267 8.152344 L 280 8.152344 L 280 26 L 267 26 Z M 267 8.152344 "/></clipPath><clipPath id="ecedf2ed7a"><path d="M 8.152344 152 L 101 152 L 101 365.902344 L 8.152344 365.902344 Z M 8.152344 152 "/></clipPath></defs><g id="e4deb1beab"><path style="fill:none;stroke-width:4;stroke-linecap:butt;stroke-linejoin:miter;stroke:#000000;stroke-opacity:1;stroke-miterlimit:4;" d="M 0.00000516333 2.000988 L 160.000016 2.000988 " transform="matrix(0.75,0,0,0.75,127.499996,254.796134)"/><path style=" stroke:none;fill-rule:nonzero;fill:#000000;fill-opacity:1;" d="M 308.199219 181.257812 L 308.199219 170.085938 C 308.199219 161.839844 311.277344 154.21875 316.636719 149.167969 C 329.609375 136.960938 337.050781 119.660156 337.050781 101.703125 C 337.050781 83.066406 329.15625 65.324219 315.402344 53.027344 C 301.84375 40.914062 284.449219 35.375 266.355469 37.40625 C 236.828125 40.742188 213.308594 65.058594 210.425781 95.230469 C 208.492188 115.449219 215.6875 134.984375 230.171875 148.835938 C 235.75 154.175781 238.957031 161.910156 238.957031 170.0625 L 238.957031 181.257812 C 238.957031 184.441406 241.542969 187.027344 244.730469 187.027344 L 302.429688 187.027344 C 305.617188 187.027344 308.199219 184.441406 308.199219 181.257812 Z M 296.660156 175.488281 L 250.5 175.488281 L 250.5 170.0625 C 250.5 158.777344 245.992188 147.996094 238.140625 140.492188 C 226.230469 129.105469 220.308594 113.011719 221.90625 96.332031 C 224.28125 71.566406 243.511719 51.605469 267.648438 48.878906 C 282.414062 47.226562 296.636719 51.746094 307.710938 61.636719 C 319.019531 71.746094 325.511719 86.34375 325.511719 101.703125 C 325.511719 116.488281 319.394531 130.726562 308.726562 140.773438 C 301.058594 147.984375 296.660156 158.671875 296.660156 170.085938 Z M 296.660156 175.488281 "/><path style=" stroke:none;fill-rule:nonzero;fill:#000000;fill-opacity:1;" d="M 244.730469 192.796875 L 302.429688 192.796875 L 302.429688 204.335938 L 244.730469 204.335938 Z M 244.730469 192.796875 "/><path style=" stroke:none;fill-rule:nonzero;fill:#000000;fill-opacity:1;" d="M 301.621094 219.234375 L 302.128906 217.707031 C 302.71875 215.945312 302.417969 214.015625 301.335938 212.507812 C 300.253906 210.996094 298.511719 210.109375 296.660156 210.109375 L 250.5 210.109375 C 248.648438 210.109375 246.902344 210.996094 245.820312 212.507812 C 244.734375 214.015625 244.441406 215.945312 245.023438 217.707031 L 245.53125 219.234375 C 249.464844 231.03125 260.46875 238.957031 272.90625 238.957031 L 274.253906 238.957031 C 286.6875 238.957031 297.691406 231.03125 301.621094 219.234375 Z M 274.253906 227.417969 L 272.90625 227.417969 C 267.855469 227.417969 263.210938 225.242188 259.996094 221.648438 L 287.164062 221.648438 C 283.949219 225.242188 279.304688 227.417969 274.253906 227.417969 Z M 274.253906 227.417969 "/><path style=" stroke:none;fill-rule:nonzero;fill:#000000;fill-opacity:1;" d="M 181.257812 88.933594 L 198.566406 88.933594 L 198.566406 100.476562 L 181.257812 100.476562 Z M 181.257812 88.933594 "/><g clip-rule="nonzero" clip-path="url(#bcae184571)"><path style=" stroke:none;fill-rule:nonzero;fill:#000000;fill-opacity:1;" d="M 348.589844 88.933594 L 365.902344 88.933594 L 365.902344 100.476562 L 348.589844 100.476562 Z M 348.589844 88.933594 "/></g><path style=" stroke:none;fill-rule:nonzero;fill:#000000;fill-opacity:1;" d="M 204.214844 33.503906 L 212.375 25.34375 L 224.613281 37.585938 L 216.453125 45.746094 Z M 204.214844 33.503906 "/><path style=" stroke:none;fill-rule:nonzero;fill:#000000;fill-opacity:1;" d="M 322.535156 37.585938 L 334.777344 25.34375 L 342.9375 33.503906 L 330.695312 45.746094 Z M 322.535156 37.585938 "/><g clip-rule="nonzero" clip-path="url(#e72f2fbb24)"><path style=" stroke:none;fill-rule:nonzero;fill:#000000;fill-opacity:1;" d="M 267.808594 8.152344 L 279.351562 8.152344 L 279.351562 25.460938 L 267.808594 25.460938 Z M 267.808594 8.152344 "/></g><g clip-rule="nonzero" clip-path="url(#ecedf2ed7a)"><path style=" stroke:none;fill-rule:nonzero;fill:#000000;fill-opacity:1;" d="M 22.773438 365.707031 C 23.269531 365.839844 23.773438 365.902344 24.269531 365.902344 C 25.894531 365.902344 27.476562 365.210938 28.585938 363.964844 L 62.832031 325.347656 C 63.425781 324.679688 63.855469 323.878906 64.089844 323.011719 L 99.925781 189.242188 C 104.046875 173.878906 94.894531 158.027344 79.527344 153.90625 C 64.144531 149.792969 48.3125 158.945312 44.191406 174.308594 L 8.347656 308.078125 C 8.113281 308.945312 8.089844 309.851562 8.269531 310.726562 L 18.613281 361.292969 C 19.050781 363.433594 20.660156 365.140625 22.773438 365.707031 Z M 48 324.675781 L 43.71875 329.503906 L 22.738281 323.882812 L 21.445312 317.558594 Z M 27.609375 347.667969 L 25.328125 336.519531 L 35.164062 339.15625 Z M 54.429688 314.449219 L 43.28125 311.460938 L 73.148438 199.988281 L 84.296875 202.976562 Z M 76.539062 165.054688 C 85.761719 167.523438 91.25 177.039062 88.777344 186.253906 L 87.285156 191.828125 L 53.839844 182.871094 L 55.335938 177.296875 C 57.808594 168.078125 67.320312 162.589844 76.539062 165.054688 Z M 50.855469 194.015625 L 62.003906 197.003906 L 32.140625 308.476562 L 20.992188 305.488281 Z M 50.855469 194.015625 "/></g><path style=" stroke:none;fill-rule:nonzero;fill:#000000;fill-opacity:1;" d="M 279.351562 290.890625 L 279.351562 273.578125 L 267.808594 273.578125 L 267.808594 290.890625 C 267.808594 313.164062 249.691406 331.28125 227.417969 331.28125 L 215.878906 331.28125 C 193.605469 331.28125 175.488281 313.164062 175.488281 290.890625 L 175.488281 187.027344 C 175.488281 158.394531 152.1875 135.097656 123.554688 135.097656 L 117.785156 135.097656 L 117.785156 146.636719 L 123.554688 146.636719 C 145.828125 146.636719 163.945312 164.753906 163.945312 187.027344 L 163.945312 290.890625 C 163.945312 319.523438 187.246094 342.820312 215.878906 342.820312 L 227.417969 342.820312 C 256.050781 342.820312 279.351562 319.523438 279.351562 290.890625 Z M 279.351562 290.890625 "/><path style=" stroke:none;fill-rule:nonzero;fill:#000000;fill-opacity:1;" d="M 267.808594 250.5 L 279.351562 250.5 L 279.351562 262.039062 L 267.808594 262.039062 Z M 267.808594 250.5 "/><path style=" stroke:none;fill-rule:nonzero;fill:#000000;fill-opacity:1;" d="M 303.300781 87.960938 L 286.414062 85.378906 L 278.808594 69.171875 C 277.855469 67.144531 275.820312 65.855469 273.578125 65.855469 C 271.339844 65.855469 269.304688 67.144531 268.359375 69.171875 L 260.753906 85.378906 L 243.863281 87.960938 C 241.722656 88.289062 239.949219 89.78125 239.265625 91.832031 C 238.578125 93.878906 239.097656 96.148438 240.601562 97.695312 L 252.992188 110.394531 L 250.054688 128.398438 C 249.695312 130.578125 250.621094 132.769531 252.425781 134.046875 C 254.230469 135.320312 256.609375 135.441406 258.542969 134.378906 L 273.578125 126.066406 L 288.617188 134.375 C 289.492188 134.851562 290.453125 135.097656 291.410156 135.097656 C 292.574219 135.097656 293.742188 134.738281 294.734375 134.039062 C 296.539062 132.765625 297.460938 130.570312 297.105469 128.390625 L 294.167969 110.386719 L 306.554688 97.6875 C 308.066406 96.140625 308.585938 93.878906 307.894531 91.824219 C 307.203125 89.769531 305.4375 88.289062 303.300781 87.960938 Z M 283.875 104.421875 C 282.59375 105.730469 282.015625 107.570312 282.308594 109.378906 L 283.804688 118.53125 L 276.371094 114.421875 C 275.5 113.941406 274.542969 113.699219 273.578125 113.699219 C 272.617188 113.699219 271.65625 113.941406 270.785156 114.421875 L 263.355469 118.53125 L 264.847656 109.378906 C 265.144531 107.570312 264.566406 105.730469 263.285156 104.421875 L 256.703125 97.675781 L 265.535156 96.324219 C 267.441406 96.03125 269.074219 94.8125 269.886719 93.070312 L 273.578125 85.207031 L 277.273438 93.070312 C 278.09375 94.8125 279.726562 96.03125 281.625 96.324219 L 290.457031 97.675781 Z M 283.875 104.421875 "/><path style=" stroke:none;fill-rule:nonzero;fill:#000000;fill-opacity:1;" d="M 94.703125 135.097656 L 106.246094 135.097656 L 106.246094 146.636719 L 94.703125 146.636719 Z M 94.703125 135.097656 "/></g></svg>