<svg xmlns="http://www.w3.org/2000/svg" xmlns:xlink="http://www.w3.org/1999/xlink" width="500" zoomAndPan="magnify" viewBox="0 0 375 374.999991" height="500" preserveAspectRatio="xMidYMid meet" version="1.2"><g id="8a25705887"><path style=" stroke:none;fill-rule:nonzero;fill:#010101;fill-opacity:1;" d="M 315.101562 179.480469 C 317.191406 179.480469 319.074219 178.628906 320.445312 177.265625 L 341.792969 155.894531 C 343.164062 154.535156 344.007812 152.644531 344.007812 150.566406 C 344.007812 146.394531 340.632812 143.019531 336.460938 143.019531 C 334.371094 143.019531 332.480469 143.863281 331.121094 145.234375 L 309.757812 166.582031 C 308.398438 167.953125 307.546875 169.835938 307.546875 171.914062 C 307.546875 176.09375 310.933594 179.480469 315.101562 179.480469 Z M 315.101562 179.480469 "/><path style=" stroke:none;fill-rule:nonzero;fill:#010101;fill-opacity:1;" d="M 372.003906 187.929688 C 370.53125 186.472656 368.597656 185.730469 366.660156 185.730469 L 336.460938 185.730469 C 334.527344 185.730469 332.589844 186.472656 331.121094 187.929688 C 328.175781 190.894531 328.175781 195.675781 331.121094 198.617188 C 332.589844 200.097656 334.527344 200.828125 336.460938 200.828125 L 366.648438 200.828125 C 368.585938 200.828125 370.519531 200.097656 372.003906 198.617188 C 374.945312 195.675781 374.945312 190.894531 372.003906 187.929688 Z M 372.003906 187.929688 "/><path style=" stroke:none;fill-rule:nonzero;fill:#010101;fill-opacity:1;" d="M 299.085938 155.894531 C 300.554688 154.4375 301.296875 152.488281 301.296875 150.566406 L 301.296875 120.367188 C 301.296875 118.429688 300.554688 116.496094 299.085938 115.023438 C 296.132812 112.070312 291.351562 112.070312 288.410156 115.023438 C 286.925781 116.496094 286.199219 118.429688 286.199219 120.367188 L 286.199219 150.566406 C 286.199219 152.488281 286.925781 154.425781 288.410156 155.898438 C 291.351562 158.851562 296.132812 158.851562 299.085938 155.894531 Z M 299.085938 155.894531 "/><path style=" stroke:none;fill-rule:nonzero;fill:#010101;fill-opacity:1;" d="M 203.003906 67.371094 C 205.082031 67.371094 206.972656 66.519531 208.335938 65.160156 L 229.695312 43.796875 C 231.054688 42.4375 231.90625 40.546875 231.90625 38.46875 C 231.90625 34.296875 228.523438 30.910156 224.351562 30.910156 C 222.273438 30.910156 220.382812 31.761719 219.007812 33.125 L 197.660156 54.484375 C 196.289062 55.84375 195.449219 57.734375 195.449219 59.816406 C 195.449219 63.996094 198.835938 67.371094 203.003906 67.371094 Z M 203.003906 67.371094 "/><path style=" stroke:none;fill-rule:nonzero;fill:#010101;fill-opacity:1;" d="M 219.019531 75.832031 C 216.066406 78.785156 216.066406 83.578125 219.019531 86.519531 C 220.492188 87.988281 222.425781 88.730469 224.363281 88.730469 L 254.550781 88.730469 C 256.484375 88.730469 258.421875 87.988281 259.894531 86.519531 C 262.847656 83.574219 262.847656 78.785156 259.894531 75.832031 C 258.421875 74.363281 256.488281 73.621094 254.5625 73.621094 L 224.363281 73.621094 C 222.429688 73.621094 220.492188 74.363281 219.019531 75.832031 Z M 219.019531 75.832031 "/><path style=" stroke:none;fill-rule:nonzero;fill:#010101;fill-opacity:1;" d="M 186.988281 43.796875 C 188.457031 42.328125 189.199219 40.390625 189.199219 38.46875 L 189.199219 8.269531 C 189.199219 6.320312 188.457031 4.398438 186.988281 2.914062 C 184.035156 -0.0273438 179.253906 -0.0273438 176.300781 2.914062 C 174.832031 4.398438 174.089844 6.332031 174.089844 8.269531 L 174.089844 38.457031 C 174.089844 40.390625 174.832031 42.328125 176.300781 43.796875 C 179.253906 46.753906 184.035156 46.753906 186.988281 43.796875 Z M 186.988281 43.796875 "/><path style=" stroke:none;fill-rule:nonzero;fill:#010101;fill-opacity:1;" d="M 325.113281 213.96875 L 325.113281 213.957031 L 319.027344 207.886719 L 317.789062 206.648438 L 272.570312 161.425781 L 269.738281 158.59375 L 159.265625 269.058594 C 144.542969 283.78125 120.59375 283.78125 105.871094 269.058594 C 91.160156 254.347656 91.160156 230.386719 105.871094 215.675781 L 173.636719 147.910156 L 216.34375 105.199219 L 214.554688 103.410156 L 162.019531 50.878906 L 157.617188 46.476562 L 47.148438 156.9375 C -0.03125 204.113281 -0.03125 280.605469 47.148438 327.792969 C 94.324219 374.972656 170.828125 374.972656 218.003906 327.792969 L 328.464844 217.320312 Z M 207.328125 317.109375 C 197.230469 327.207031 185.460938 335.027344 172.363281 340.339844 C 159.699219 345.472656 146.3125 348.082031 132.574219 348.082031 C 118.835938 348.082031 105.453125 345.472656 92.785156 340.339844 C 79.679688 335.027344 67.921875 327.207031 57.820312 317.109375 C 47.734375 307.019531 39.910156 295.25 34.601562 282.15625 C 29.46875 269.488281 26.859375 256.09375 26.859375 242.367188 C 26.859375 228.628906 29.46875 215.242188 34.601562 202.578125 C 39.910156 189.480469 47.734375 177.710938 57.820312 167.621094 L 114.898438 110.542969 L 152.277344 147.910156 L 95.199219 204.988281 C 74.558594 225.628906 74.558594 259.101562 95.199219 279.742188 C 115.839844 300.382812 149.3125 300.382812 169.953125 279.742188 L 227.019531 222.664062 L 264.394531 260.03125 Z M 207.328125 317.109375 "/><path style="fill:none;stroke-width:4;stroke-linecap:butt;stroke-linejoin:miter;stroke:#000000;stroke-opacity:1;stroke-miterlimit:4;" d="M 0.00000516333 2.000016 L 160.000016 2.000016 " transform="matrix(0.75,0,0,0.75,127.499996,185.999988)"/></g></svg>